<svg width="1400" height="860" viewBox="0 0 1400 860" fill="none" xmlns="http://www.w3.org/2000/svg">
  <defs>
    <linearGradient id="bg" x1="0" y1="0" x2="1400" y2="860" gradientUnits="userSpaceOnUse">
      <stop stop-color="#0D1B2A"/>
      <stop offset="1" stop-color="#1B263B"/>
    </linearGradient>
    <linearGradient id="accent" x1="0" y1="0" x2="900" y2="300" gradientUnits="userSpaceOnUse">
      <stop stop-color="#00C2A8" stop-opacity="0.85"/>
      <stop offset="1" stop-color="#4CC9F0" stop-opacity="0.6"/>
    </linearGradient>
  </defs>
  <rect width="1400" height="860" fill="url(#bg)"/>
  <rect x="42" y="36" width="1316" height="788" rx="22" fill="#0A1320" stroke="#2E3C55" stroke-width="2"/>
  <rect x="42" y="36" width="1316" height="56" rx="22" fill="#121F31"/>
  <circle cx="76" cy="64" r="8" fill="#F87171"/>
  <circle cx="104" cy="64" r="8" fill="#FACC15"/>
  <circle cx="132" cy="64" r="8" fill="#4ADE80"/>
  <rect x="82" y="128" width="520" height="44" rx="10" fill="url(#accent)"/>
  <rect x="82" y="194" width="360" height="16" rx="8" fill="#7EA0C4" fill-opacity="0.7"/>
  <rect x="82" y="222" width="420" height="16" rx="8" fill="#7EA0C4" fill-opacity="0.45"/>
  <rect x="82" y="280" width="810" height="222" rx="14" fill="#111D2F" stroke="#2B3F5D"/>
  <rect x="910" y="280" width="406" height="222" rx="14" fill="#111D2F" stroke="#2B3F5D"/>
  <rect x="82" y="526" width="588" height="268" rx="14" fill="#111D2F" stroke="#2B3F5D"/>
  <rect x="688" y="526" width="628" height="268" rx="14" fill="#111D2F" stroke="#2B3F5D"/>
  <text x="96" y="157" fill="#061019" font-size="24" font-family="Helvetica, Arial, sans-serif" font-weight="700">KBO Tutorial Snapshot</text>
  <text x="96" y="326" fill="#CFE4FF" font-size="22" font-family="Helvetica, Arial, sans-serif" font-weight="700">Page Overview Panel</text>
  <text x="924" y="326" fill="#CFE4FF" font-size="22" font-family="Helvetica, Arial, sans-serif" font-weight="700">Key Metrics</text>
  <text x="96" y="570" fill="#CFE4FF" font-size="22" font-family="Helvetica, Arial, sans-serif" font-weight="700">Recent Trends</text>
  <text x="702" y="570" fill="#CFE4FF" font-size="22" font-family="Helvetica, Arial, sans-serif" font-weight="700">Filters and Context</text>
  <text x="1010" y="157" fill="#A2BEDF" font-size="20" font-family="Helvetica, Arial, sans-serif" font-weight="700">PITCHERS PAGE</text>
</svg>
