<svg xmlns="http://www.w3.org/2000/svg" viewBox="0 0 180 64" role="img"><rect width="180" height="64" rx="12" fill="#111111"/><path d="M28 10c8 8 14 14 14 22a8 8 0 0 1-14 5 8 8 0 0 1-14-5c0-8 6-14 14-22z M26 40h4l2 10h-8z" fill="#ffffff" transform="translate(4 2)"/><path fill="#ff7a18" d="M1386 402Q1386 210 1242.0 105.0Q1098 0 842 0H137V1409H782Q1040 1409 1172.5 1319.5Q1305 1230 1305 1055Q1305 935 1238.5 852.5Q1172 770 1036 741Q1207 721 1296.5 633.5Q1386 546 1386 402ZM1008 1015Q1008 1110 947.5 1150.0Q887 1190 768 1190H432V841H770Q895 841 951.5 884.5Q1008 928 1008 1015ZM1090 425Q1090 623 806 623H432V219H817Q959 219 1024.5 270.5Q1090 322 1090 425Z" transform="translate(67.00 40.40) scale(0.011719 -0.011719)"/><path fill="#ff7a18" d="M1507 711Q1507 491 1420.0 324.0Q1333 157 1171.0 68.5Q1009 -20 793 -20Q461 -20 272.5 175.5Q84 371 84 711Q84 1050 272.0 1240.0Q460 1430 795 1430Q1130 1430 1318.5 1238.0Q1507 1046 1507 711ZM1206 711Q1206 939 1098.0 1068.5Q990 1198 795 1198Q597 1198 489.0 1069.5Q381 941 381 711Q381 479 491.5 345.5Q602 212 793 212Q991 212 1098.5 342.0Q1206 472 1206 711Z" transform="translate(84.33 40.40) scale(0.011719 -0.011719)"/><path fill="#ff7a18" d="M834 0H535L14 1409H322L612 504Q639 416 686 238L707 324L758 504L1047 1409H1352Z" transform="translate(103.00 40.40) scale(0.011719 -0.011719)"/><path fill="#ff7a18" d="M1133 0 1008 360H471L346 0H51L565 1409H913L1425 0ZM739 1192 733 1170Q723 1134 709.0 1088.0Q695 1042 537 582H942L803 987L760 1123Z" transform="translate(119.01 40.40) scale(0.011719 -0.011719)"/><path fill="#ff7a18" d="M1393 715Q1393 497 1307.5 334.5Q1222 172 1065.5 86.0Q909 0 707 0H137V1409H647Q1003 1409 1198.0 1229.5Q1393 1050 1393 715ZM1096 715Q1096 942 978.0 1061.5Q860 1181 641 1181H432V228H682Q872 228 984.0 359.0Q1096 490 1096 715Z" transform="translate(136.34 40.40) scale(0.011719 -0.011719)"/><path fill="#ff7a18" d="M1133 0 1008 360H471L346 0H51L565 1409H913L1425 0ZM739 1192 733 1170Q723 1134 709.0 1088.0Q695 1042 537 582H942L803 987L760 1123Z" transform="translate(153.67 40.40) scale(0.011719 -0.011719)"/></svg>
