<svg xmlns="http://www.w3.org/2000/svg" viewBox="0 0 176 64" role="img"><rect width="176" height="64" rx="12" fill="#111111"/><path fill="#7CFF6B" d="M1296 963Q1296 827 1234.0 720.0Q1172 613 1056.5 554.5Q941 496 782 496H432V0H137V1409H770Q1023 1409 1159.5 1292.5Q1296 1176 1296 963ZM999 958Q999 1180 737 1180H432V723H745Q867 723 933.0 783.5Q999 844 999 958Z" transform="translate(10.66 43.20) scale(0.015625 -0.015625)"/><path fill="#7CFF6B" d="M1105 0 778 535H432V0H137V1409H841Q1093 1409 1230.0 1300.5Q1367 1192 1367 989Q1367 841 1283.0 733.5Q1199 626 1056 592L1437 0ZM1070 977Q1070 1180 810 1180H432V764H818Q942 764 1006.0 820.0Q1070 876 1070 977Z" transform="translate(32.00 43.20) scale(0.015625 -0.015625)"/><path fill="#7CFF6B" d="M1507 711Q1507 491 1420.0 324.0Q1333 157 1171.0 68.5Q1009 -20 793 -20Q461 -20 272.5 175.5Q84 371 84 711Q84 1050 272.0 1240.0Q460 1430 795 1430Q1130 1430 1318.5 1238.0Q1507 1046 1507 711ZM1206 711Q1206 939 1098.0 1068.5Q990 1198 795 1198Q597 1198 489.0 1069.5Q381 941 381 711Q381 479 491.5 345.5Q602 212 793 212Q991 212 1098.5 342.0Q1206 472 1206 711Z" transform="translate(55.11 43.20) scale(0.015625 -0.015625)"/><path fill="#7CFF6B" d="M1296 963Q1296 827 1234.0 720.0Q1172 613 1056.5 554.5Q941 496 782 496H432V0H137V1409H770Q1023 1409 1159.5 1292.5Q1296 1176 1296 963ZM999 958Q999 1180 737 1180H432V723H745Q867 723 933.0 783.5Q999 844 999 958Z" transform="translate(80.00 43.20) scale(0.015625 -0.015625)"/><path fill="#7CFF6B" d="M1046 0V604H432V0H137V1409H432V848H1046V1409H1341V0Z" transform="translate(101.34 43.20) scale(0.015625 -0.015625)"/><path fill="#7CFF6B" d="M137 0V1409H1245V1181H432V827H1184V599H432V228H1286V0Z" transform="translate(124.45 43.20) scale(0.015625 -0.015625)"/><path fill="#7CFF6B" d="M773 1181V0H478V1181H23V1409H1229V1181Z" transform="translate(145.80 43.20) scale(0.015625 -0.015625)"/></svg>
